<mxfile host="app.diagrams.net" modified="2024-05-09T10:17:45.960Z" agent="Mozilla/5.0 (Macintosh; Intel Mac OS X 10_15_7) AppleWebKit/605.1.15 (KHTML, like Gecko) Version/17.4.1 Safari/605.1.15" etag="WLu6w09n8QwQr0L_2wLG" version="24.3.1" type="github">
  <diagram name="Page-1" id="vyjvcKDDY-Q1cRrWW_GO">
    <mxGraphModel dx="1696" dy="1008" grid="1" gridSize="10" guides="1" tooltips="1" connect="1" arrows="1" fold="1" page="1" pageScale="1" pageWidth="1169" pageHeight="827" math="0" shadow="0">
      <root>
        <mxCell id="0" />
        <mxCell id="1" parent="0" />
        <mxCell id="DxdnqBih5QT2LqmZ5ssz-1" value="login screen" style="rounded=0;whiteSpace=wrap;html=1;" vertex="1" parent="1">
          <mxGeometry x="40" y="40" width="120" height="60" as="geometry" />
        </mxCell>
        <mxCell id="DxdnqBih5QT2LqmZ5ssz-3" value="main page w tables and pop-out extras" style="rounded=0;whiteSpace=wrap;html=1;" vertex="1" parent="1">
          <mxGeometry x="198" y="41" width="120" height="60" as="geometry" />
        </mxCell>
        <mxCell id="DxdnqBih5QT2LqmZ5ssz-4" value="order page" style="rounded=0;whiteSpace=wrap;html=1;" vertex="1" parent="1">
          <mxGeometry x="358" y="41" width="120" height="60" as="geometry" />
        </mxCell>
        <mxCell id="DxdnqBih5QT2LqmZ5ssz-5" value="print receipt" style="rounded=0;whiteSpace=wrap;html=1;" vertex="1" parent="1">
          <mxGeometry x="518" y="41" width="120" height="60" as="geometry" />
        </mxCell>
      </root>
    </mxGraphModel>
  </diagram>
</mxfile>
